<svg width="16" height="16" viewBox="0 0 16 16" fill="none" xmlns="http://www.w3.org/2000/svg">
  <rect width="16" height="16" rx="2" fill="#171321"/>
  <path d="M5 4C4.25 4 4 4.5 4 5V6C4 6.75 3.5 7 2.75 7H2V9H2.75C3.5 9 4 9.25 4 10V11C4 11.5 4.25 12 5 12" stroke="#4A90E2" stroke-width="1.5" stroke-linecap="round"/>
  <path d="M11 4C11.75 4 12 4.5 12 5V6C12 6.75 12.5 7 13.25 7H14V9H13.25C12.5 9 12 9.25 12 10V11C12 11.5 11.75 12 11 12" stroke="#4A90E2" stroke-width="1.5" stroke-linecap="round"/>
</svg>